<svg width="30" height="38" viewBox="0 0 30 38" fill="none" xmlns="http://www.w3.org/2000/svg">
<path d="M27.0823 34.557H18.865C20.2454 33.3244 21.5472 32.0066 22.7627 30.6112C27.3232 25.3661 29.7405 19.837 29.7405 14.6203C29.7405 10.7427 28.2002 7.024 25.4583 4.28217C22.7165 1.54034 18.9978 0 15.1203 0C11.2427 0 7.524 1.54034 4.78217 4.28217C2.04034 7.024 0.5 10.7427 0.5 14.6203C0.5 19.837 2.91068 25.3661 7.47785 30.6112C8.69334 32.0066 9.9951 33.3244 11.3755 34.557H3.15823C2.80572 34.557 2.46766 34.697 2.2184 34.9463C1.96915 35.1955 1.82911 35.5336 1.82911 35.8861C1.82911 36.2386 1.96915 36.5766 2.2184 36.8259C2.46766 37.0752 2.80572 37.2152 3.15823 37.2152H27.0823C27.4348 37.2152 27.7728 37.0752 28.0221 36.8259C28.2714 36.5766 28.4114 36.2386 28.4114 35.8861C28.4114 35.5336 28.2714 35.1955 28.0221 34.9463C27.7728 34.697 27.4348 34.557 27.0823 34.557ZM3.15823 14.6203C3.15823 11.4477 4.41851 8.40514 6.66182 6.16182C8.90514 3.91851 11.9477 2.65823 15.1203 2.65823C18.2928 2.65823 21.3354 3.91851 23.5787 6.16182C25.822 8.40514 27.0823 11.4477 27.0823 14.6203C27.0823 24.1284 17.8665 32.0649 15.1203 34.2247C12.374 32.0649 3.15823 24.1284 3.15823 14.6203ZM21.7658 14.6203C21.7658 13.3059 21.3761 12.021 20.6458 10.9282C19.9156 9.83531 18.8777 8.98353 17.6634 8.48055C16.4491 7.97756 15.1129 7.84596 13.8238 8.10238C12.5347 8.3588 11.3505 8.99173 10.4211 9.92113C9.49173 10.8505 8.8588 12.0347 8.60238 13.3238C8.34596 14.6129 8.47756 15.9491 8.98055 17.1634C9.48353 18.3777 10.3353 19.4156 11.4282 20.1458C12.521 20.8761 13.8059 21.2658 15.1203 21.2658C16.8828 21.2658 18.5731 20.5657 19.8194 19.3194C21.0657 18.0731 21.7658 16.3828 21.7658 14.6203ZM11.1329 14.6203C11.1329 13.8316 11.3668 13.0607 11.8049 12.405C12.243 11.7493 12.8658 11.2382 13.5944 10.9364C14.323 10.6346 15.1247 10.5557 15.8981 10.7095C16.6716 10.8634 17.3821 11.2431 17.9397 11.8008C18.4974 12.3584 18.8771 13.0689 19.031 13.8424C19.1848 14.6158 19.1059 15.4176 18.8041 16.1461C18.5023 16.8747 17.9912 17.4975 17.3355 17.9356C16.6798 18.3737 15.9089 18.6076 15.1203 18.6076C14.0627 18.6076 13.0485 18.1875 12.3008 17.4397C11.553 16.692 11.1329 15.6778 11.1329 14.6203Z" fill="white"/>
</svg>
